<svg width="1360" height="1180" viewBox="0 0 680 590" xmlns="http://www.w3.org/2000/svg" style="background:#ffffff;font-family:Arial,sans-serif;">
<defs>
  <marker id="arrow" viewBox="0 0 10 10" refX="8" refY="5" markerWidth="6" markerHeight="6" orient="auto-start-reverse">
    <path d="M2 1L8 5L2 9" fill="none" stroke="context-stroke" stroke-width="1.5" stroke-linecap="round" stroke-linejoin="round"/>
  </marker>
</defs>

<!-- TITLE -->
<text font-family="Arial" font-weight="600" font-size="15" fill="#1a1a1a" x="340" y="22" text-anchor="middle">AI-Driven Financial Analytics Platform — System Architecture</text>

<!-- LAYER 0: DATA SOURCES -->
<text font-family="Arial" font-size="10" fill="#888" x="40" y="46">LAYER 0 — DATA SOURCES</text>

<rect x="40"  y="52" width="175" height="44" rx="6" fill="#F1EFE8" stroke="#B4B2A9" stroke-width="0.5"/>
<text font-family="Arial" font-weight="600" font-size="13" fill="#2C2C2A" x="127" y="72" text-anchor="middle">Yahoo Finance</text>
<text font-family="Arial" font-size="11" fill="#5F5E5A" x="127" y="88" text-anchor="middle">Stock prices via yfinance</text>

<rect x="253" y="52" width="175" height="44" rx="6" fill="#F1EFE8" stroke="#B4B2A9" stroke-width="0.5"/>
<text font-family="Arial" font-weight="600" font-size="13" fill="#2C2C2A" x="340" y="72" text-anchor="middle">Kaggle / MSCI</text>
<text font-family="Arial" font-size="11" fill="#5F5E5A" x="340" y="88" text-anchor="middle">ESG scores (simulated)</text>

<rect x="466" y="52" width="175" height="44" rx="6" fill="#F1EFE8" stroke="#B4B2A9" stroke-width="0.5"/>
<text font-family="Arial" font-weight="600" font-size="13" fill="#2C2C2A" x="553" y="72" text-anchor="middle">Macrotrends</text>
<text font-family="Arial" font-size="11" fill="#5F5E5A" x="553" y="88" text-anchor="middle">Financial statements</text>

<line x1="127" y1="96" x2="127" y2="126" stroke="#888" stroke-width="1" marker-end="url(#arrow)"/>
<line x1="340" y1="96" x2="340" y2="126" stroke="#888" stroke-width="1" marker-end="url(#arrow)"/>
<line x1="553" y1="96" x2="553" y2="126" stroke="#888" stroke-width="1" marker-end="url(#arrow)"/>
<line x1="127" y1="112" x2="553" y2="112" stroke="#ccc" stroke-width="0.5"/>

<!-- LAYER 1: SQL -->
<text font-family="Arial" font-size="10" fill="#888" x="40" y="122">LAYER 1 — SQL SERVER DATA WAREHOUSE</text>
<rect x="40" y="128" width="601" height="58" rx="8" fill="#E6F1FB" stroke="#378ADD" stroke-width="1"/>
<text font-family="Arial" font-weight="700" font-size="13" fill="#0C447C" x="340" y="150" text-anchor="middle">ESGFinancialPlatform (SQL Server + SSMS 22)</text>
<text font-family="Arial" font-size="11" fill="#185FA5" x="340" y="168" text-anchor="middle">companies · financials · stock_prices · esg_scores · news_sentiment  |  7,530+ rows  ·  5 tables  ·  FK relationships</text>

<line x1="340" y1="186" x2="340" y2="210" stroke="#378ADD" stroke-width="1.5" marker-end="url(#arrow)"/>
<text font-family="Arial" font-size="10" fill="#888" x="354" y="202">pyodbc</text>

<!-- LAYER 2: PYTHON -->
<text font-family="Arial" font-size="10" fill="#888" x="40" y="207">LAYER 2 — PYTHON ANALYTICS ENGINE (9 modules)</text>
<rect x="40" y="213" width="601" height="58" rx="8" fill="#E1F5EE" stroke="#1D9E75" stroke-width="1"/>
<text font-family="Arial" font-weight="700" font-size="13" fill="#085041" x="340" y="233" text-anchor="middle">Python 3.14  ·  pandas  ·  numpy  ·  yfinance  ·  scikit-learn  ·  NLTK  ·  pyodbc</text>
<text font-family="Arial" font-size="11" fill="#0F6E56" x="340" y="251" text-anchor="middle">financial_metrics · esg_scoring · sentiment_analysis · esg_predictor · ai_recommendation · export_master</text>

<line x1="340" y1="271" x2="340" y2="285" stroke="#888" stroke-width="1"/>
<line x1="180" y1="285" x2="500" y2="285" stroke="#ccc" stroke-width="0.5"/>
<line x1="180" y1="285" x2="180" y2="305" stroke="#888" stroke-width="1" marker-end="url(#arrow)"/>
<line x1="500" y1="285" x2="500" y2="305" stroke="#888" stroke-width="1" marker-end="url(#arrow)"/>
<text font-family="Arial" font-size="10" fill="#888" x="194" y="300">CSV export</text>
<text font-family="Arial" font-size="10" fill="#888" x="450" y="300">CSV + SQL</text>

<!-- LAYER 3: EXCEL + POWERBI -->
<text font-family="Arial" font-size="10" fill="#888" x="40" y="301">LAYER 3 — MODELING &amp; VISUALIZATION</text>

<rect x="40" y="307" width="285" height="74" rx="8" fill="#EEEDFE" stroke="#7F77DD" stroke-width="1"/>
<text font-family="Arial" font-weight="700" font-size="13" fill="#3C3489" x="182" y="327" text-anchor="middle">Microsoft Excel</text>
<text font-family="Arial" font-size="11" fill="#534AB7" x="182" y="343" text-anchor="middle">3-Statement Model  ·  DCF Valuation</text>
<text font-family="Arial" font-size="11" fill="#534AB7" x="182" y="358" text-anchor="middle">Scenario Toggle  ·  Sensitivity Table</text>
<text font-family="Arial" font-size="11" fill="#534AB7" x="182" y="373" text-anchor="middle">Peer Comparison (10 companies)</text>

<rect x="356" y="307" width="285" height="74" rx="8" fill="#FAEEDA" stroke="#BA7517" stroke-width="1"/>
<text font-family="Arial" font-weight="700" font-size="13" fill="#633806" x="498" y="327" text-anchor="middle">Power BI Desktop</text>
<text font-family="Arial" font-size="11" fill="#854F0B" x="498" y="343" text-anchor="middle">5 Pages  ·  20+ Visuals  ·  DAX</text>
<text font-family="Arial" font-size="11" fill="#854F0B" x="498" y="358" text-anchor="middle">Executive · Financials · ESG</text>
<text font-family="Arial" font-size="11" fill="#854F0B" x="498" y="373" text-anchor="middle">Recommendations · AI Insights</text>

<line x1="182" y1="381" x2="182" y2="405" stroke="#888" stroke-width="1"/>
<line x1="498" y1="381" x2="498" y2="405" stroke="#888" stroke-width="1"/>
<line x1="182" y1="405" x2="498" y2="405" stroke="#ccc" stroke-width="0.5"/>
<line x1="340" y1="405" x2="340" y2="420" stroke="#888" stroke-width="1.5" marker-end="url(#arrow)"/>

<!-- LAYER 4: AI -->
<text font-family="Arial" font-size="10" fill="#888" x="40" y="416">LAYER 4 — AI &amp; ESG INTEGRATION</text>
<rect x="40" y="422" width="601" height="58" rx="8" fill="#FAECE7" stroke="#D85A30" stroke-width="1"/>
<text font-family="Arial" font-weight="700" font-size="13" fill="#4A1B0C" x="340" y="444" text-anchor="middle">AI Recommendation Engine</text>
<text font-family="Arial" font-size="11" fill="#993C1D" x="340" y="462" text-anchor="middle">NLTK VADER Sentiment (25%)  ·  Scikit-learn ESG Forecasting  ·  Financial Pillar (35%)  ·  ESG Pillar (40%)</text>

<line x1="340" y1="480" x2="340" y2="500" stroke="#1D9E75" stroke-width="1.5" marker-end="url(#arrow)"/>

<!-- OUTPUT -->
<rect x="160" y="500" width="360" height="50" rx="8" fill="#EAF3DE" stroke="#639922" stroke-width="1"/>
<text font-family="Arial" font-weight="700" font-size="13" fill="#173404" x="340" y="521" text-anchor="middle">Investment Recommendation Output</text>
<text font-family="Arial" font-size="11" fill="#3B6D11" x="340" y="539" text-anchor="middle">Strong Buy · Buy · Hold · Underperform · Sell  +  Confidence Rating</text>

<!-- LEGEND -->
<rect x="40"  y="560" width="12" height="12" rx="2" fill="#F1EFE8" stroke="#B4B2A9" stroke-width="0.5"/>
<text font-family="Arial" font-size="10" fill="#444" x="58" y="570">Data Sources</text>
<rect x="135" y="560" width="12" height="12" rx="2" fill="#E6F1FB" stroke="#378ADD" stroke-width="0.5"/>
<text font-family="Arial" font-size="10" fill="#444" x="153" y="570">SQL Warehouse</text>
<rect x="250" y="560" width="12" height="12" rx="2" fill="#E1F5EE" stroke="#1D9E75" stroke-width="0.5"/>
<text font-family="Arial" font-size="10" fill="#444" x="268" y="570">Python Engine</text>
<rect x="355" y="560" width="12" height="12" rx="2" fill="#EEEDFE" stroke="#7F77DD" stroke-width="0.5"/>
<text font-family="Arial" font-size="10" fill="#444" x="373" y="570">Excel Model</text>
<rect x="445" y="560" width="12" height="12" rx="2" fill="#FAEEDA" stroke="#BA7517" stroke-width="0.5"/>
<text font-family="Arial" font-size="10" fill="#444" x="463" y="570">Power BI</text>
<rect x="520" y="560" width="12" height="12" rx="2" fill="#FAECE7" stroke="#D85A30" stroke-width="0.5"/>
<text font-family="Arial" font-size="10" fill="#444" x="538" y="570">AI Layer</text>
</svg>
